#!OML:ASF F:\VICON\USERDATA\INSTALL\rory3\rory3.ASF
:FULLY-SPECIFIED
:DEGREES
627
root -2.67701 18.5014 -2.00146 200.547 -76.9929 -188.748
lowerback 13.6005 -2.3034 -2.63776
upperback 6.28645 -3.83367 -3.38792
thorax -1.06854 -2.07862 -1.49764
lowerneck -7.5258 3.22456 -4.16603
upperneck 24.2094 3.82313 2.50625
head 8.62303 1.39107 1.86961
rclavicle 1.74931e-014 8.74653e-015
rhumerus 3.4325 44.9863 -75.8049
rradius 130.854
rwrist -8.72752
rhand -38.3635 -9.57368
rfingers 7.12502
rthumb -11.3899 320.756
lclavicle 1.74931e-014 8.74653e-015
lhumerus 2.95942 -22.0794 94.702
lradius 33.5322
lwrist -5.82635
lhand -37.6214 6.80323
lfingers 7.12502
lthumb -10.6741 36.5121
rfemur -30.7714 13.7049 9.88048
rtibia 34.7033
rfoot -17.7065 -16.7977
rtoes -2.04237
lfemur -26.9927 4.40238 -23.3063
ltibia 33.9602
lfoot -15.9115 4.16553
ltoes 3.87313
628
root -2.67014 18.5092 -2.00085 200.385 -77.0274 -188.678
lowerback 13.5588 -2.38573 -2.80374
upperback 6.25006 -3.96216 -3.44503
thorax -1.07839 -2.14412 -1.44713
lowerneck -7.45017 3.31418 -4.17935
upperneck 24.2391 3.90568 2.64391
head 8.61158 1.43824 1.92396
rclavicle -1.03368e-014 -3.02153e-014
rhumerus 3.30631 43.744 -75.829
rradius 131.074
rwrist -9.72364
rhand -37.8641 -9.11884
rfingers 7.12502
rthumb -10.9082 321.184
lclavicle -1.03368e-014 -3.02153e-014
lhumerus 2.97232 -22.7631 94.6975
lradius 34.1388
lwrist -5.61795
lhand -37.5192 7.52083
lfingers 7.12502
lthumb -10.5755 37.2348
rfemur -30.548 13.7245 9.91379
rtibia 34.4998
rfoot -18.0614 -16.7533
rtoes -0.899489
lfemur -26.6183 3.46339 -23.0565
ltibia 33.5663
lfoot -16.1064 4.7304
ltoes 4.23763
629
root -2.66209 18.5158 -1.99778 200.337 -77.0649 -188.701
lowerback 13.4521 -2.48132 -2.83271
upperback 6.24769 -4.09469 -3.62628
thorax -1.0359 -2.21031 -1.60631
lowerneck -7.52334 3.39879 -4.09343
upperneck 24.406 3.95425 2.84109
head 8.6764 1.48094 1.98447
rclavicle 4.77083e-015 -1.59028e-015
rhumerus 3.19803 42.3362 -75.911
rradius 131.325
rwrist -10.9136
rhand -37.4128 -8.86188
rfingers 7.12502
rthumb -10.4729 321.419
lclavicle 4.77083e-015 -1.59028e-015
lhumerus 3.00734 -23.5583 94.4774
lradius 34.7578
lwrist -5.36862
lhand -37.5519 8.27878
lfingers 7.12502
lthumb -10.607 37.9911
rfemur -30.3423 14.0764 9.82316
rtibia 34.2708
rfoot -18.1757 -16.9862
rtoes -0.974688
lfemur -26.3463 3.00837 -22.9144
ltibia 33.221
lfoot -16.1552 5.06204
ltoes 4.36059
630
root -2.65139 18.5198 -1.9992 199.765 -76.9464 -188.265
lowerback 13.4978 -2.38193 -3.08725
upperback 6.22991 -3.99892 -3.61915
thorax -1.06019 -2.16751 -1.46758
lowerneck -7.58257 3.38608 -4.16688
upperneck 24.6267 3.91134 2.95105
head 8.76014 1.45654 2.03528
rclavicle 2.3059e-014 6.04305e-014
rhumerus 2.91555 40.8403 -75.8788
rradius 131.538
rwrist -11.9348
rhand -37.4672 -8.65974
rfingers 7.12502
rthumb -10.5254 321.624
lclavicle 2.3059e-014 6.04305e-014
lhumerus 3.18313 -24.5887 94.4923
lradius 35.1935
lwrist -5.10368
lhand -38.0242 9.32147
lfingers 7.12502
lthumb -11.0626 39.0099
rfemur -30.0923 13.8815 9.98216
rtibia 34.0334
rfoot -17.6971 -16.6658
rtoes -2.50007
lfemur -26.033 3.02934 -22.7533
ltibia 32.9312
lfoot -16.0496 5.03456
ltoes 4.35112
631
root -2.63962 18.5236 -1.99467 198.339 -77.009 -186.876
lowerback 13.4729 -2.37118 -2.94012
upperback 6.18743 -3.96038 -3.56813
thorax -1.09755 -2.14349 -1.50149
lowerneck -7.57263 3.37393 -4.18748
upperneck 24.8469 3.87876 2.95389
head 8.835 1.42957 2.04032
rclavicle -1.27222e-014 6.36111e-014
rhumerus 2.62107 39.3975 -75.8824
rradius 131.638
rwrist -12.6935
rhand -37.9179 -8.60987
rfingers 7.12502
rthumb -10.9601 321.696
lclavicle -1.27222e-014 6.36111e-014
lhumerus 3.33934 -25.5916 94.4541
lradius 35.5908
lwrist -4.82195
lhand -38.5149 10.3666
lfingers 7.12502
lthumb -11.5358 40.0292
rfemur -29.9088 13.8547 10.3311
rtibia 33.7988
rfoot -17.56 -16.4908
rtoes -3.10046
lfemur -25.9178 3.34823 -22.4312
ltibia 32.6878
lfoot -15.6423 4.83304
ltoes 3.16406
632
root -2.62798 18.5314 -1.99403 197.369 -77.0105 -186.014
lowerback 13.5061 -2.36456 -2.9893
upperback 6.15817 -3.95823 -3.54938
thorax -1.1414 -2.14216 -1.45213
lowerneck -7.68519 3.34593 -4.24719
upperneck 25.1126 3.81706 3.04229
head 8.94672 1.39391 2.08201
rclavicle -8.74653e-015 1.27222e-014
rhumerus 2.42113 37.8979 -75.8029
rradius 131.801
rwrist -13.6447
rhand -38.0328 -8.6864
rfingers 7.12502
rthumb -11.0709 321.626
lclavicle -8.74653e-015 1.27222e-014
lhumerus 3.47748 -26.2749 94.38
lradius 36.0021
lwrist -4.88293
lhand -38.5201 11.8407
lfingers 7.12502
lthumb -11.5408 41.503
rfemur -29.6516 13.9465 10.5005
rtibia 33.5632
rfoot -18.142 -16.0983
rtoes -1.68563
lfemur -25.7251 3.76115 -22.2392
ltibia 32.4838
lfoot -15.3888 4.62788
ltoes 2.10559
633
root -2.61755 18.542 -1.99427 197.541 -76.9523 -186.289
lowerback 13.5168 -2.35408 -3.31443
upperback 6.12278 -3.98725 -3.57431
thorax -1.16389 -2.16147 -1.29121
lowerneck -7.77666 3.35536 -4.32934
upperneck 25.2769 3.82527 3.09769
head 9.01727 1.38938 2.12049
rclavicle -2.14687e-014 4.29375e-014
rhumerus 2.2704 36.3077 -75.7068
rradius 131.982
rwrist -14.8556
rhand -37.6389 -8.78617
rfingers 7.12502
rthumb -10.6909 321.506
lclavicle -2.14687e-014 4.29375e-014
lhumerus 3.71421 -26.8065 94.206
lradius 36.3904
lwrist -4.91186
lhand -38.314 13.165
lfingers 7.12502
lthumb -11.3421 42.8383
rfemur -29.4309 13.906 10.3678
rtibia 33.3236
rfoot -19.0122 -15.4866
rtoes 0.561486
lfemur -25.4966 3.83059 -22.2413
ltibia 32.3057
lfoot -15.4339 4.36262
ltoes 2.74341
634
root -2.60918 18.5503 -1.99306 197.537 -76.8934 -186.341
lowerback 13.5516 -2.33437 -3.47945
upperback 6.02832 -3.98529 -3.6112
thorax -1.27296 -2.15934 -1.23278
lowerneck -7.83751 3.37562 -4.42052
upperneck 25.4582 3.84414 3.16392
head 9.08718 1.38896 2.16492
rclavicle -1.66979e-014 -3.97569e-014
rhumerus 1.99682 34.7428 -75.6503
rradius 132.144
rwrist -16.0557
rhand -37.4428 -8.69092
rfingers 7.12502
rthumb -10.5018 321.591
lclavicle -1.66979e-014 -3.97569e-014
lhumerus 3.81206 -27.6117 93.8926
lradius 37.0095
lwrist -4.27226
lhand -38.02 14.0268
lfingers 7.12502
lthumb -11.0586 43.7155
rfemur -29.2201 13.7952 10.3083
rtibia 33.0672
rfoot -19.6742 -14.9682
rtoes 1.19517
lfemur -25.3578 4.08489 -22.2607
ltibia 32.1377
lfoot -15.3084 4.00004
ltoes 3.01444
635
root -2.60187 18.5563 -1.99222 197.331 -76.8279 -186.195
lowerback 13.4342 -2.33948 -3.35254
upperback 6.01743 -3.98014 -3.81249
thorax -1.24458 -2.15466 -1.51904
lowerneck -7.95068 3.38196 -4.51033
upperneck 25.6342 3.79172 3.46099
head 9.16146 1.38062 2.28274
rclavicle -2.78299e-014 5.08889e-014
rhumerus 1.71579 33.2689 -75.8824
rradius 132.266
rwrist -17.006
rhand -37.3689 -8.5123
rfingers 7.12502
rthumb -10.4306 321.766
lclavicle -2.78299e-014 5.08889e-014
lhumerus 3.70228 -28.5034 93.5121
lradius 37.7794
lwrist -3.77462
lhand -37.8175 15.1127
lfingers 7.12502
lthumb -10.8632 44.8117
rfemur -28.9653 13.5172 10.3592
rtibia 32.8055
rfoot -20.186 -14.4366
rtoes -0.118007
lfemur -25.2747 4.62239 -22.3037
ltibia 31.9944
lfoot -14.9824 3.58634
ltoes 2.88955
636
root -2.59559 18.5636 -1.99255 196.962 -76.7738 -185.933
lowerback 13.44 -2.29411 -3.45699
upperback 5.93826 -3.93242 -3.80088
thorax -1.32265 -2.12946 -1.45238
lowerneck -7.93622 3.40453 -4.6074
upperneck 25.8027 3.82447 3.46437
head 9.21408 1.37885 2.30628
rclavicle -1.43125e-014 -1.11319e-014
rhumerus 1.34775 31.8773 -75.9026
rradius 132.476
rwrist -18.184
rhand -37.099 -8.48316
rfingers 7.12502
rthumb -10.1701 321.783
lclavicle -1.43125e-014 -1.11319e-014
lhumerus 3.4681 -29.2312 93.5434
lradius 38.3876
lwrist -3.58368
lhand -38.0071 16.1347
lfingers 7.12502
lthumb -11.0461 45.824
rfemur -28.6389 13.3941 10.4132
rtibia 32.5376
rfoot -20.9049 -13.8953
rtoes -1.43319
lfemur -25.1328 4.86798 -22.2483
ltibia 31.9265
lfoot -14.8564 3.54324
ltoes 3.22622
